<svg width="250" height="80" viewBox="0 0 250 80" fill="none" xmlns="http://www.w3.org/2000/svg">
<path d="M89.9161 51.6643L89.2448 52.1119L80.4056 40.5315V52H79.6224V26.993C79.6224 26.7319 79.7529 26.6014 80.014 26.6014H82.1958C84.4336 26.6014 86.2051 27.31 87.5105 28.7273C88.8531 30.1072 89.5245 31.8042 89.5245 33.8182C89.5245 35.6457 88.8718 37.2308 87.5664 38.5734C86.2984 39.8788 84.7692 40.5315 82.979 40.5315H81.4685L89.9161 51.6643ZM88.7413 33.8182C88.7413 31.9907 88.1632 30.4615 87.007 29.2308C85.8508 28 84.2471 27.3846 82.1958 27.3846H80.4056V39.7483H82.979C84.5082 39.7483 85.8508 39.1515 87.007 37.958C88.1632 36.7646 88.7413 35.3846 88.7413 33.8182ZM102.715 34.4336C105.55 34.4336 107.787 35.3473 109.428 37.1748C110.92 38.8531 111.666 40.9044 111.666 43.3287C111.666 45.8275 110.902 47.9347 109.372 49.6503C107.694 51.5524 105.4 52.5035 102.491 52.5035C99.6568 52.5035 97.419 51.5897 95.778 49.7622C94.2861 48.0839 93.5402 46.0326 93.5402 43.6084C93.5402 41.1096 94.3048 39.0023 95.8339 37.2867C97.5122 35.3846 99.8059 34.4336 102.715 34.4336ZM102.715 35.2168C100.104 35.2168 98.0157 36.0932 96.4493 37.8462C95.0693 39.4126 94.3794 41.3333 94.3794 43.6084C94.3794 45.8089 95.0507 47.6737 96.3934 49.2028C97.8852 50.8811 99.9178 51.7203 102.491 51.7203C105.102 51.7203 107.191 50.8438 108.757 49.0909C110.137 47.5245 110.827 45.6037 110.827 43.3287C110.827 41.1282 110.156 39.2634 108.813 37.7343C107.321 36.0559 105.288 35.2168 102.715 35.2168ZM130.349 49.7063L130.069 49.9301C128.317 51.6457 126.228 52.5035 123.804 52.5035C121.342 52.5035 119.216 51.627 117.426 49.8741C115.636 48.1212 114.741 46.014 114.741 43.5524C114.741 41.0536 115.636 38.9091 117.426 37.1189C119.216 35.3287 121.361 34.4336 123.86 34.4336C124.755 34.4336 125.631 34.5641 126.489 34.8252C127.347 35.0862 128.317 35.627 129.398 36.4476L129.678 36.6713L129.23 37.3427L128.951 37.1189C128.279 36.5594 127.515 36.1119 126.657 35.7762C125.799 35.4033 124.867 35.2168 123.86 35.2168C121.585 35.2168 119.627 36.0373 117.986 37.6783C116.345 39.3193 115.524 41.2774 115.524 43.5524C115.524 45.7902 116.345 47.711 117.986 49.3147C119.627 50.9184 121.566 51.7203 123.804 51.7203C126.004 51.7203 127.906 50.9371 129.51 49.3706L129.79 49.1469L130.349 49.7063ZM143.232 51.5524L142.672 52.1119L134.448 44.6713V52H133.665V26.6014H134.448V43.7762L142.504 35.4965L143.064 36.0559L135.12 44.2238L143.232 51.5524ZM147.039 28.6713L146.255 28.4476L147.151 25.986V25.3147H147.934V26.0979L147.039 28.6713ZM163.363 52H162.579V40.4196C162.579 39.4872 162.057 38.5361 161.013 37.5664C159.857 36.4848 158.551 35.9441 157.097 35.9441C155.456 35.9441 154.132 36.5967 153.125 37.9021C152.789 38.3124 152.435 38.9837 152.062 39.9161V52H151.279V35.6643H152.062V38.014C152.547 37.2308 153.143 36.5967 153.852 36.1119C154.784 35.4779 155.866 35.1608 157.097 35.1608C158.775 35.1608 160.23 35.7389 161.46 36.8951C162.729 38.0513 163.363 39.2261 163.363 40.4196V52ZM167.164 28.6713L166.38 28.4476L167.276 25.986V25.3147H168.059V26.0979L167.164 28.6713ZM186.173 39.1329C186.173 42.8998 184.998 45.9953 182.648 48.4196C180.336 50.8065 177.203 52 173.25 52H171.795C171.534 52 171.404 51.8695 171.404 51.6084V26.993C171.404 26.7319 171.534 26.6014 171.795 26.6014H173.921C177.017 26.6014 179.777 27.7389 182.201 30.014C184.849 32.4755 186.173 35.5152 186.173 39.1329ZM185.39 39.1329C185.39 35.8135 184.14 32.979 181.641 30.6294C179.329 28.4662 176.756 27.3846 173.921 27.3846H172.187V51.2168H173.25C177.017 51.2168 179.982 50.1166 182.145 47.9161C184.308 45.7156 185.39 42.7879 185.39 39.1329ZM190.578 34.042H189.795V32.8671H190.578V34.042ZM190.578 52H189.795V35.6643H190.578V52ZM209.755 49.7063L209.476 49.9301C207.723 51.6457 205.634 52.5035 203.21 52.5035C200.748 52.5035 198.623 51.627 196.832 49.8741C195.042 48.1212 194.147 46.014 194.147 43.5524C194.147 41.0536 195.042 38.9091 196.832 37.1189C198.623 35.3287 200.767 34.4336 203.266 34.4336C204.161 34.4336 205.038 34.5641 205.895 34.8252C206.753 35.0862 207.723 35.627 208.804 36.4476L209.084 36.6713L208.637 37.3427L208.357 37.1189C207.686 36.5594 206.921 36.1119 206.063 35.7762C205.205 35.4033 204.273 35.2168 203.266 35.2168C200.991 35.2168 199.033 36.0373 197.392 37.6783C195.751 39.3193 194.93 41.2774 194.93 43.5524C194.93 45.7902 195.751 47.711 197.392 49.3147C199.033 50.9184 200.972 51.7203 203.21 51.7203C205.41 51.7203 207.313 50.9371 208.916 49.3706L209.196 49.1469L209.755 49.7063ZM231.085 43.6084C231.085 43.8695 230.955 44 230.694 44H213.855C213.855 46.2378 214.675 48.1585 216.316 49.7622C217.957 51.366 219.897 52.1678 222.134 52.1678C225.603 52.1678 228.083 50.5641 229.575 47.3566L229.687 47.021L230.358 47.3566L230.246 47.6923C229.538 49.3706 228.456 50.676 227.002 51.6084C225.584 52.5035 223.962 52.951 222.134 52.951C219.636 52.951 217.491 52.0559 215.701 50.2657C213.948 48.4382 213.071 46.2378 213.071 43.6643C213.071 41.2028 213.967 39.1142 215.757 37.3986C217.547 35.683 219.673 34.8252 222.134 34.8252C224.596 34.8252 226.703 35.683 228.456 37.3986C230.209 39.1142 231.085 41.1841 231.085 43.6084ZM230.302 43.2727C230.302 41.1469 229.482 39.338 227.841 37.8462C226.2 36.3543 224.298 35.6084 222.134 35.6084C219.934 35.6084 217.995 36.3543 216.316 37.8462C214.675 39.338 213.855 41.1469 213.855 43.2727H230.302Z" fill="#17E6BF"/>
<path d="M19.7266 41.7832C19.7949 40.3672 19.7812 38.8926 19.9512 37.4395C20.6973 31.0684 23.9082 26.2969 29.5098 23.2051C34.7539 20.3105 40.3555 19.2871 46.2676 20.4902C50.0508 21.2598 53.25 23.1836 55.9902 25.8613C58.9434 28.748 61.1094 32.1543 62.3613 36.0996C63.9746 41.1855 63.1602 45.9668 60.416 50.4707C58.9668 52.8496 57.0527 54.834 55.0332 56.7246C54.2656 57.4434 53.5078 58.1738 52.7266 58.8789C52.5918 59 52.3652 59.0195 52.1797 59.0879C52.1875 58.8945 52.1582 58.6895 52.2109 58.5098C52.5801 57.2266 52.7559 55.9375 52.5566 54.5957C52.375 53.3613 52.7363 52.209 53.2793 51.1074C53.6602 50.3359 54.0781 49.5742 54.3731 48.7695C55.0215 47.0059 55.0859 45.2246 54.3535 43.4531C53.2988 40.9023 51.7793 38.6836 49.7617 36.7871C47.2539 34.4277 44.3496 33.3848 40.9199 33.9668C36.375 34.7363 32.9395 37.0918 30.8301 41.2188C29.7461 43.3398 29.5879 45.5469 30.7793 47.7168C30.9609 48.0488 31.1914 48.3652 31.4531 48.6387C32.5195 49.7598 32.8008 51.0918 32.5684 52.5723C32.4707 53.1953 32.334 53.8145 32.2656 54.4414C32.1738 55.2754 32.3691 55.9844 33.0215 56.6191C33.6191 57.1992 34.0566 57.9434 34.5527 58.625C34.6211 58.7188 34.6211 58.8633 34.6523 58.9844C34.5156 59.0098 34.3594 59.0898 34.2461 59.0488C32.9531 58.5879 31.625 58.1973 30.4023 57.5918C29.8887 57.3379 29.4648 56.9805 28.8477 56.9043C28.5352 56.8652 28.2363 56.5332 27.9727 56.2891C27.2871 55.6484 26.541 54.7344 25.7461 54.1387C24.7773 53.4121 23.957 53.2578 22.8926 52.582C21.8164 51.8984 20.3145 51.3398 19.2773 49.8125C18.7188 48.8789 18.5195 47.9004 18.9023 46.8437C19.0391 46.4668 19.1504 46.0801 19.2676 45.6953C19.8223 43.8867 19.373 42.4316 17.9219 41.2363C17.7832 41.123 17.7363 40.8965 17.6465 40.7227C17.8516 40.7344 18.1016 40.6738 18.2559 40.7695C18.793 41.0957 19.291 41.4766 19.7266 41.7832ZM26.875 51.6758C25.7676 48.5762 25.6641 45.6445 26.4785 42.6719C27.2461 39.8652 28.9219 37.627 30.9141 35.6016C33.2129 33.2637 35.9941 31.7793 39.2051 31.0684C43.3613 30.1465 47.3457 30.4727 50.8262 33.0586C55.7969 36.752 57.9297 41.8809 57.7031 47.998C57.6172 50.3184 57.1582 52.5977 56.1152 54.7148C56.0996 54.748 56.1289 54.8027 56.1484 54.9043C57.5176 53.4863 58.7773 52.0488 59.7969 50.418C62.0566 46.7988 63.0879 42.8945 62.3984 38.6348C61.834 35.1563 60.2617 32.1055 58.1895 29.3027C55.7109 25.9551 52.6523 23.3145 48.6895 21.8711C43.2246 19.8809 37.8066 20.3203 32.4785 22.4043C28.7344 23.8633 25.5879 26.1465 23.3066 29.5098C21.2617 32.5234 20.4648 35.918 20.3398 39.498C20.2871 41.0254 20.3906 42.5156 20.9297 44.0098C21.1348 44.5801 21.0469 44.7207 21.0879 45.0801C21.1191 45.3652 21.0957 45.6699 21.1641 45.9336C21.4316 46.9648 22.293 48.6465 22.8828 49.9941C22.9531 50.1523 23.123 50.3184 23.2852 50.3789C24.4238 50.8066 25.5723 51.209 26.875 51.6758ZM30.0996 47.625C28.8418 44.5059 29.8145 41.5391 31.0645 39.6152C33.1777 36.3672 36.1875 34.3965 39.9531 33.5977C43.1738 32.9141 46.1934 33.3477 48.877 35.416C51.4648 37.4102 53.4258 39.8828 54.7422 42.875C55.2031 43.9219 55.5 44.9766 55.4609 46.1387C55.4062 47.7734 54.8984 49.2539 54.0957 50.6504C53.2402 52.1348 52.7773 53.6621 53.0938 55.4219C53.2383 56.2266 53.0234 57.0977 52.9668 57.998C53.4258 57.4922 53.8945 57.0176 54.3184 56.5059C56.2637 54.1562 56.9219 51.3594 57.1113 48.3984C57.1563 47.7129 57.373 47.0117 57.2812 46.3477C56.9219 43.7227 56.3223 41.1562 55.0566 38.791C53.2734 35.4609 50.8301 32.7988 47.0879 31.791C41.3711 30.252 36.2715 31.5488 31.8613 35.5371C29.4609 37.709 27.6523 40.2246 26.9473 43.4434C26.6387 44.8535 26.5527 46.2656 26.7012 47.6855C27.293 47.5957 27.834 47.4551 28.3789 47.4453C28.9395 47.4395 29.5059 47.5586 30.0996 47.625ZM26.7988 48.6152C26.9961 49.3711 27.2168 50.0996 27.3691 50.8418C27.5332 51.6406 27.9512 52.1094 28.7773 52.2324C29.1699 52.291 29.5527 52.4375 29.9336 52.5625C31.2324 52.9844 31.6504 53.9277 31.1699 55.2109C30.9395 55.8262 30.8027 56.4766 30.6055 57.1738C31.7109 57.6562 32.7266 58.1016 33.7441 58.5449C33.7754 58.4941 33.8047 58.4434 33.8359 58.3926C33.4805 57.8984 33.1895 57.3398 32.7578 56.9258C31.7031 55.916 31.5039 54.7383 31.748 53.3574C31.8926 52.541 32.0098 51.6582 31.8496 50.8633C31.3887 48.5781 29.291 47.6504 26.7988 48.6152ZM20.2754 44.4199C20.248 44.4258 20.2207 44.4316 20.1934 44.4355C19.9824 45.1465 19.8203 45.877 19.5508 46.5664C18.877 48.2754 19.4609 49.6406 20.7754 50.6836C21.5977 51.3359 22.6211 51.7363 23.5469 52.2637C24.373 52.7344 25.2461 53.1484 25.9961 53.7227C26.8262 54.3594 27.5312 55.1562 28.3066 55.8672C28.5605 56.0996 28.8652 56.2734 29.0879 56.4316C28.5078 55.2383 27.9023 54.0527 27.3613 52.8359C27.2188 52.5156 27.0488 52.3594 26.7422 52.2539C25.5156 51.8281 24.2578 51.4668 23.082 50.9277C21.0078 49.9785 20.2871 48.6133 20.4082 46.3379C20.4395 45.7031 20.3223 45.0605 20.2754 44.4199ZM30.0684 56.668C30.332 55.8398 30.582 55.1797 30.748 54.498C30.8691 54.0039 30.6484 53.5625 30.1699 53.373C29.4531 53.0898 28.707 52.8828 27.9746 52.6426C27.918 52.6973 27.8633 52.7539 27.8066 52.8086C28.5391 54.0566 29.2695 55.3047 30.0684 56.668Z" fill="#212121"/>
<path d="M26.875 51.6758C25.5723 51.209 24.4238 50.8066 23.2852 50.3789C23.1231 50.3184 22.9531 50.1543 22.8828 49.9941C22.293 48.6484 21.7129 47.2969 21.1641 45.9336C21.0625 45.6797 21.1192 45.3652 21.0879 45.0801C21.0488 44.7207 21.0723 44.3262 20.9297 44.0098C20.2813 42.5586 20.2852 41.0254 20.3399 39.498C20.4649 35.918 21.2637 32.5234 23.3067 29.5098C25.5879 26.1465 28.7344 23.8633 32.4727 22.4023C37.8008 20.3184 43.2188 19.8789 48.6836 21.8691C52.6465 23.3125 55.7071 25.9531 58.1836 29.3008C60.2578 32.1035 61.8301 35.1543 62.3926 38.6328C63.084 42.8926 62.0528 46.7969 59.791 50.416C58.7715 52.0469 57.5117 53.4863 56.1426 54.9023C56.1231 54.8008 56.0938 54.7461 56.1094 54.7129C57.1524 52.5957 57.6113 50.3164 57.6973 47.9961C57.9258 41.8789 55.791 36.75 50.8203 33.0566C47.3399 30.4707 43.3555 30.1465 39.1992 31.0664C35.9883 31.7793 33.209 33.2637 30.9082 35.5996C28.918 37.623 27.2422 39.8633 26.4727 42.6699C25.6641 45.6445 25.7676 48.5762 26.875 51.6758Z" fill="white"/>
<path d="M30.0996 47.625C29.5059 47.5586 28.9414 47.4395 28.377 47.4473C27.834 47.4551 27.293 47.5957 26.6992 47.6875C26.5508 46.2676 26.6367 44.8574 26.9453 43.4453C27.6504 40.2246 29.459 37.709 31.8594 35.5391C36.2696 31.5508 41.3692 30.2539 47.086 31.793C50.8281 32.8008 53.2715 35.4629 55.0547 38.793C56.3223 41.1582 56.9199 43.7246 57.2793 46.3496C57.3711 47.0137 57.1543 47.7148 57.1094 48.4004C56.9199 51.3594 56.2617 54.1562 54.3164 56.5078C53.8926 57.0195 53.4239 57.4961 52.9649 58C53.0215 57.0996 53.2364 56.2285 53.0918 55.4238C52.7754 53.6641 53.2383 52.1348 54.0938 50.6523C54.8985 49.2559 55.4043 47.7754 55.459 46.1406C55.4981 44.9785 55.2012 43.9238 54.7403 42.877C53.4239 39.8828 51.461 37.4121 48.875 35.418C46.1914 33.3496 43.1739 32.916 39.9512 33.5996C36.1856 34.3984 33.1758 36.3691 31.0625 39.6172C29.8125 41.5371 28.8418 44.5059 30.0996 47.625Z" fill="#D6D6D6"/>
<path d="M26.7988 48.6152C29.291 47.6504 31.3867 48.5801 31.8477 50.8633C32.0078 51.6582 31.8906 52.543 31.7461 53.3574C31.5 54.7383 31.7012 55.916 32.7559 56.9258C33.1875 57.3398 33.4785 57.9004 33.834 58.3926C33.8027 58.4434 33.7734 58.4941 33.7422 58.5449C32.7246 58.0996 31.709 57.6562 30.6035 57.1738C30.8008 56.4766 30.9375 55.8262 31.168 55.2109C31.6484 53.9277 31.2305 52.9844 29.9316 52.5625C29.5508 52.4395 29.168 52.291 28.7754 52.2324C27.9492 52.1094 27.5293 51.6406 27.3672 50.8418C27.2168 50.0996 26.9961 49.3711 26.7988 48.6152Z" fill="#E5E5E5"/>
<path d="M20.2754 44.4199C20.3242 45.0586 20.4394 45.7031 20.4062 46.3379C20.2871 48.6133 21.0058 49.9785 23.0801 50.9277C24.2558 51.4648 25.5136 51.8281 26.7402 52.2539C27.0468 52.3613 27.2168 52.5156 27.3593 52.8359C27.9004 54.0527 28.5058 55.2383 29.0859 56.4316C28.8633 56.2734 28.5586 56.0996 28.3047 55.8672C27.5293 55.1582 26.8242 54.3594 25.9941 53.7227C25.2461 53.1484 24.373 52.7344 23.5449 52.2637C22.6191 51.7363 21.5976 51.3359 20.7734 50.6836C19.459 49.6406 18.8769 48.2754 19.5488 46.5664C19.8203 45.8789 19.9804 45.1484 20.1914 44.4355C20.2207 44.4316 20.248 44.4258 20.2754 44.4199Z" fill="#494949"/>
<path d="M30.0684 56.668C29.2695 55.3066 28.5391 54.0566 27.8066 52.8086C27.8633 52.7539 27.918 52.6973 27.9746 52.6426C28.707 52.8828 29.4531 53.0918 30.1699 53.373C30.6465 53.5605 30.8672 54.002 30.748 54.498C30.582 55.1797 30.332 55.8398 30.0684 56.668Z" fill="#8FD7EF"/>
</svg>
